<svg id="Layer_1" data-name="Layer 1" xmlns="http://www.w3.org/2000/svg" viewBox="0 0 1000 1000"><g id="layer1"><g id="g3327"><path id="text835" d="M501.83,487.51v18.34h1.22v-5l.2.15,1.07,1a30.24,30.24,0,0,1,4.2,4.82,12.12,12.12,0,0,1,1.92,4.27,10.9,10.9,0,0,1-.13,4,15.84,15.84,0,0,1-1.59,4.43,3.73,3.73,0,0,0-.25.58,1.25,1.25,0,0,0,0,.35,1.4,1.4,0,0,0,.31.8,1.64,1.64,0,0,0,1.59.51,1.2,1.2,0,0,0,.69-.43,6.67,6.67,0,0,0,.82-1.66,23.27,23.27,0,0,0,.84-2.64,18.37,18.37,0,0,0,.56-3.68,13.23,13.23,0,0,0-.26-3.27,10.15,10.15,0,0,0-.37-1.29,12.61,12.61,0,0,0-.51-1.3l-.3-.58.25-.49a11.48,11.48,0,0,0,.92-4.76,12.64,12.64,0,0,0-1.17-4.83l-.24-.53.15-.3a9,9,0,0,0,.35-.94c.11-.36.21-.71.28-1.06a4.61,4.61,0,0,0,.09-.67c0-.2,0-.53,0-1s0-1-.05-1.36a11.7,11.7,0,0,0-.19-1.28,20,20,0,0,0-2.06-5.09c-.26-.44-.56-.95-.91-1.52l-1.39-2.24-1.41-2.21A26.78,26.78,0,0,1,504,473.9a13.78,13.78,0,0,1-.9-4.13v-.59h-1.22v18.33Zm2-7q1.89,2.37,3.09,4.21a21.27,21.27,0,0,1,1.89,3.47,13.25,13.25,0,0,1,.82,2.65,6.79,6.79,0,0,1,.11,2.24v.2l-.88-1.23c-.25-.33-.53-.7-.82-1.11l-.74-1a33.55,33.55,0,0,1-2.86-4.56,13.33,13.33,0,0,1-1.25-3.8c-.05-.36-.09-.76-.12-1.21s0-.68,0-.7a1.79,1.79,0,0,0,.22.3c.14.16.31.36.52.58Zm2.2,12.81c.47.55.87,1,1.18,1.43s.64.87,1,1.36a12.93,12.93,0,0,1,1.8,3.76,7.43,7.43,0,0,1,.15,3.43c0,.15-.05.28-.07.38a1,1,0,0,1-.07.21s-.14-.1-.4-.44c-.1-.16-.28-.41-.53-.74s-.51-.7-.79-1.07c-1.14-1.51-2-2.69-2.54-3.52a17.38,17.38,0,0,1-1.37-2.45,14.54,14.54,0,0,1-1-2.61,10,10,0,0,1-.35-2.42v-.44l1.13,1.17,1,1.05.84.9Z"/><path id="rect841" d="M502,468.69h.61a.49.49,0,0,1,.49.49v51.73a.49.49,0,0,1-.49.49H502a.49.49,0,0,1-.49-.49V469.18A.49.49,0,0,1,502,468.69Z"/><path id="text845" d="M495.72,516.71a11,11,0,0,0-4.8,1.91,9.67,9.67,0,0,0-3.22,3.71,6.63,6.63,0,0,0-.56,1.52,5.94,5.94,0,0,0-.13,1.56,7.22,7.22,0,0,0,0,.74,2.52,2.52,0,0,0,.08.53,5,5,0,0,0,2,2.85,7,7,0,0,0,3.7,1.16,10.34,10.34,0,0,0,6-1.84,9.53,9.53,0,0,0,3.81-4.81,5.82,5.82,0,0,0,.24-1,7.19,7.19,0,0,0,0-1.09c0-.33,0-.58,0-.75a4.1,4.1,0,0,0-.08-.57,5.6,5.6,0,0,0-.57-1.31,5,5,0,0,0-.85-1.09,6.57,6.57,0,0,0-3-1.42,7.64,7.64,0,0,0-1.32-.12,12.89,12.89,0,0,0-1.32,0Z"/></g></g></svg>