<?xml version="1.0" encoding="utf-8"?>
<!-- Generator: Adobe Illustrator 24.2.3, SVG Export Plug-In . SVG Version: 6.00 Build 0)  -->
<svg version="1.1" id="Layer_1" xmlns="http://www.w3.org/2000/svg" xmlns:xlink="http://www.w3.org/1999/xlink" x="0px" y="0px"
	 viewBox="0 0 300 300" style="enable-background:new 0 0 300 300;" xml:space="preserve">
<g id="layer1">
	<g id="g3327">
		<path id="text835" d="M151.8,137.5v18.3h1.2v-5l0.2,0.1l1.1,1c1.6,1.5,3,3.1,4.2,4.8c0.9,1.3,1.6,2.7,1.9,4.3
			c0.2,1.3,0.2,2.7-0.1,4c-0.3,1.5-0.8,3-1.6,4.4c-0.1,0.2-0.2,0.4-0.2,0.6c0,0.1,0,0.2,0,0.3c0,0.3,0.1,0.6,0.3,0.8
			c0.4,0.4,1,0.6,1.6,0.5c0.3-0.1,0.5-0.2,0.7-0.4c0.3-0.5,0.6-1.1,0.8-1.7c0.3-0.9,0.6-1.7,0.8-2.6c0.3-1.2,0.5-2.4,0.6-3.7
			c0-1.1,0-2.2-0.3-3.3c-0.1-0.4-0.2-0.9-0.4-1.3c-0.1-0.4-0.3-0.9-0.5-1.3l-0.3-0.6l0.2-0.5c0.6-1.5,1-3.1,0.9-4.8
			c-0.1-1.7-0.5-3.3-1.2-4.8l-0.2-0.5l0.1-0.3c0.1-0.3,0.3-0.6,0.3-0.9c0.1-0.4,0.2-0.7,0.3-1.1c0-0.2,0.1-0.4,0.1-0.7
			c0-0.2,0-0.5,0-1s0-1,0-1.4c0-0.4-0.1-0.9-0.2-1.3c-0.4-1.8-1.1-3.5-2.1-5.1c-0.3-0.4-0.6-1-0.9-1.5l-1.4-2.2l-1.4-2.2
			c-1-1.5-1.8-3.1-2.5-4.7c-0.5-1.3-0.8-2.7-0.9-4.1v-0.6h-1.2L151.8,137.5L151.8,137.5z M153.8,130.5c1.3,1.6,2.3,3,3.1,4.2
			c0.7,1.1,1.4,2.3,1.9,3.5c0.4,0.9,0.6,1.7,0.8,2.6c0.2,0.7,0.2,1.5,0.1,2.2v0.2l-0.9-1.2c-0.2-0.3-0.5-0.7-0.8-1.1l-0.7-1
			c-1.1-1.4-2-3-2.9-4.6c-0.6-1.2-1-2.5-1.2-3.8c0-0.4-0.1-0.8-0.1-1.2s0-0.7,0-0.7c0.1,0.1,0.1,0.2,0.2,0.3
			C153.4,130.1,153.6,130.3,153.8,130.5L153.8,130.5z M156,143.3c0.5,0.5,0.9,1,1.2,1.4s0.6,0.9,1,1.4c0.8,1.1,1.4,2.4,1.8,3.8
			c0.3,1.1,0.4,2.3,0.1,3.4c0,0.1,0,0.3-0.1,0.4c0,0.1,0,0.1-0.1,0.2c0,0-0.1-0.1-0.4-0.4c-0.1-0.2-0.3-0.4-0.5-0.7
			s-0.5-0.7-0.8-1.1c-1.1-1.5-2-2.7-2.5-3.5c-0.5-0.8-1-1.6-1.4-2.5c-0.4-0.8-0.8-1.7-1-2.6c-0.2-0.8-0.3-1.6-0.4-2.4v-0.4l1.1,1.2
			l1,1L156,143.3L156,143.3z"/>
		<path id="rect841" d="M152,118.7h0.6c0.3,0,0.5,0.2,0.5,0.5v51.7c0,0.3-0.2,0.5-0.5,0.5H152c-0.3,0-0.5-0.2-0.5-0.5v-51.7
			C151.5,118.9,151.7,118.7,152,118.7z"/>
		<path id="text845" d="M145.7,166.7c-1.7,0.2-3.4,0.9-4.8,1.9c-1.4,0.9-2.5,2.2-3.2,3.7c-0.2,0.5-0.4,1-0.6,1.5
			c-0.1,0.5-0.2,1-0.1,1.6c0,0.2,0,0.5,0,0.7c0,0.2,0,0.4,0.1,0.5c0.3,1.2,1,2.2,2,2.8c1.1,0.7,2.4,1.1,3.7,1.2c2.1,0,4.2-0.6,6-1.8
			c1.8-1.1,3.1-2.8,3.8-4.8c0.1-0.3,0.2-0.7,0.2-1c0-0.4,0-0.7,0-1.1c0-0.3,0-0.6,0-0.8c0-0.2,0-0.4-0.1-0.6
			c-0.1-0.5-0.3-0.9-0.6-1.3c-0.2-0.4-0.5-0.8-0.9-1.1c-0.9-0.7-1.9-1.2-3-1.4c-0.4-0.1-0.9-0.1-1.3-0.1
			C146.6,166.7,146.1,166.7,145.7,166.7L145.7,166.7z"/>
	</g>
</g>
</svg>
